<?xml version="1.0" encoding="iso-8859-1"?>
<!-- Generator: Adobe Illustrator 19.0.0, SVG Export Plug-In . SVG Version: 6.00 Build 0)  -->
<svg version="1.1" id="Capa_1" xmlns="http://www.w3.org/2000/svg" xmlns:xlink="http://www.w3.org/1999/xlink" x="0px" y="0px"
	 viewBox="0 0 512 512" style="enable-background:new 0 0 512 512;" xml:space="preserve" fill="#fff">
<g>
	<g>
		<g>
			<rect x="186" y="301" width="140" height="30"/>
			<circle cx="391" cy="296" r="30"/>
			<circle cx="121" cy="296" r="30"/>
			<path d="M512,216c0-24.813-20.187-45-45-45h-30c-3.916,0-7.716,0.505-11.34,1.45L396.571,91H115.429L86.34,172.45
				C82.716,171.505,78.916,171,75,171H45c-24.813,0-45,20.187-45,45c0,20.195,13.374,37.324,31.729,43.001
				C31.25,261.286,31,263.618,31,266v155h95v-30h260v30h95V266c0-2.382-0.25-4.714-0.729-6.999C498.626,253.324,512,236.195,512,216
				z M136.571,121h238.858l24.721,69.219c-3.131,4.462-5.476,9.512-6.825,14.954C354.603,195.996,306.562,191,256,191
				s-98.603,4.996-137.325,14.173c-1.349-5.442-3.694-10.492-6.825-14.954L136.571,121z M45,231c-8.271,0-15-6.729-15-15
				s6.729-15,15-15h30c7.386,0,13.528,5.372,14.76,12.411C74.514,218.618,62.217,224.49,52.885,231H45z M451,361H61v-95
				c0-3.512,9.301-16.196,50.628-28.004C149.99,227.036,201.262,221,256,221c54.738,0,106.01,6.036,144.372,16.996
				C441.699,249.804,451,262.488,451,266V361z M467,231h-7.885c-9.332-6.51-21.629-12.382-36.875-17.589
				C423.472,206.372,429.614,201,437,201h30c8.271,0,15,6.729,15,15S475.271,231,467,231z"/>
		</g>
	</g>
</g>
<g>
</g>
<g>
</g>
<g>
</g>
<g>
</g>
<g>
</g>
<g>
</g>
<g>
</g>
<g>
</g>
<g>
</g>
<g>
</g>
<g>
</g>
<g>
</g>
<g>
</g>
<g>
</g>
<g>
</g>
</svg>
