<?xml version="1.0" encoding="iso-8859-1"?>
<!-- Generator: Adobe Illustrator 19.0.0, SVG Export Plug-In . SVG Version: 6.00 Build 0)  -->
<svg version="1.1" id="Capa_1" xmlns="http://www.w3.org/2000/svg" xmlns:xlink="http://www.w3.org/1999/xlink" x="0px" y="0px"
	 viewBox="0 0 512 512" style="enable-background:new 0 0 512 512;" xml:space="preserve" fill="#fff">
<g>
	<g>
		<path d="M437.02,74.98C388.667,26.629,324.38,0,256,0S123.333,26.629,74.98,74.98C26.629,123.333,0,187.62,0,256
			s26.629,132.667,74.98,181.02C123.333,485.371,187.62,512,256,512s132.667-26.629,181.02-74.98
			C485.371,388.667,512,324.38,512,256S485.371,123.333,437.02,74.98z M256,482C131.383,482,30,380.617,30,256S131.383,30,256,30
			s226,101.383,226,226S380.617,482,256,482z"/>
	</g>
</g>
<g>
	<g>
		<path d="M256,211c-24.813,0-45,20.187-45,45s20.187,45,45,45s45-20.187,45-45S280.813,211,256,211z M256,271
			c-8.271,0-15-6.729-15-15s6.729-15,15-15s15,6.729,15,15S264.271,271,256,271z"/>
	</g>
</g>
<g>
	<g>
		<path d="M256,60C147.925,60,60,147.925,60,256s87.925,196,196,196s196-87.925,196-196S364.075,60,256,60z M256,90
			c60.863,0,114.171,32.931,143.068,81.905C352.859,158.025,304.885,151,256,151c-48.884,0-96.859,7.025-143.068,20.905
			C141.829,122.931,195.137,90,256,90z M90,256c0-16.383,2.397-32.213,6.839-47.173c9.374-3.399,18.835-6.496,28.376-9.277
			l24,72.409c-3.153-0.621-6.337-0.959-9.509-0.959h-49.02C90.24,266.057,90,261.057,90,256z M96.201,301h43.504
			c10.026,0,22.02,8.671,25.164,18.191l30.115,91.19C147.235,391.444,110.291,350.965,96.201,301z M282.275,419.913
			C273.714,421.28,264.94,422,256,422s-17.714-0.72-26.275-2.087l-14.83-44.908c3.213,0.645,6.459,0.995,9.692,0.995h62.826
			c3.233,0,6.479-0.351,9.692-0.995L282.275,419.913z M312.623,327.803c-3.16,9.523-15.176,18.197-25.209,18.197h-62.826
			c-10.034,0-22.05-8.674-25.209-18.197l-0.064,0.021l-5.958-18.041c-0.005-0.015-39.01-117.697-39.01-117.697
			C187.517,184.72,221.515,181,256,181c34.486,0,68.483,3.72,101.654,11.086l-39.003,117.676
			c-0.007,0.021-5.965,18.062-5.965,18.062L312.623,327.803z M317.016,410.382l30.109-91.175
			c3.154-9.539,15.146-18.207,25.17-18.207h43.504C401.709,350.965,364.765,391.444,317.016,410.382z M372.295,271
			c-3.173,0-6.357,0.338-9.509,0.959l23.999-72.408c9.542,2.78,19.002,5.878,28.376,9.277C419.603,223.787,422,239.618,422,256
			c0,5.057-0.24,10.057-0.685,15H372.295z"/>
	</g>
</g>
<g>
</g>
<g>
</g>
<g>
</g>
<g>
</g>
<g>
</g>
<g>
</g>
<g>
</g>
<g>
</g>
<g>
</g>
<g>
</g>
<g>
</g>
<g>
</g>
<g>
</g>
<g>
</g>
<g>
</g>
</svg>
