<?xml version="1.0" encoding="utf-8"?>
<!-- Generator: Adobe Illustrator 21.0.0, SVG Export Plug-In . SVG Version: 6.00 Build 0)  -->
<svg version="1.1" id="Слой_1" xmlns="http://www.w3.org/2000/svg" xmlns:xlink="http://www.w3.org/1999/xlink" x="0px" y="0px"
	 viewBox="0 0 1423.6 179.3" style="enable-background:new 0 0 1423.6 179.3;" xml:space="preserve">
<style type="text/css">
	.st0{fill:#FFFFFF;}
</style>
<g>
	<rect x="1" width="706.3" height="177.3"/>
	<path class="st0" d="M188.9,77.4L178,77.9l-15.1,1c-5,0.5-10.1,0.8-15.1,1.4c-10.1,1-20.1,2.3-30.1,3.9c-10,1.5-19.9,3.4-29.9,5.3
		c-9.9,2.1-19.8,4.2-29.7,7.1l-7.4,2.2c-2.5,0.8-4.9,1.7-7.4,2.6c-2.5,1-5,1.9-7.8,3.5l-1,0.5l-0.1,0.1c-0.8,0.5-0.3,0.2-0.5,0.3
		l-0.2,0.1l-0.4,0.3c-0.3,0.2-0.4,0.3-0.8,0.6l-1.2,1.1c-0.9,0.8-1.3,1.4-1.8,2c-0.6,0.6-0.9,1.3-1.4,1.9
		c-3.3,5.1-5.1,10.2-6.7,15.2c-1.5,5-2.7,10.1-3.6,15.1c-1.1,5.9-2,11.7-2.7,17.6h9.4c1-5.2,2.1-10.3,3.4-15.3
		c1.2-4.7,2.6-9.4,4.2-13.8c1.6-4.4,3.5-8.8,5.8-11.9c0.3-0.4,0.6-0.8,0.9-1.1c0.3-0.3,0.6-0.7,0.7-0.7c0.1-0.1,0.1-0.1,0.2-0.2
		c0.1-0.1,0.5-0.3,0.7-0.5l0.3-0.2l0.1,0l0.7-0.3c1.6-0.8,3.9-1.6,6-2.4c2.3-0.7,4.6-1.4,6.9-2l7.1-1.8c9.5-2.2,19.2-4.2,28.9-5.9
		c9.7-1.6,19.5-3.2,29.3-4.4c9.8-1.2,19.6-2.3,29.5-3.3c4.9-0.5,9.9-0.8,14.8-1.2l14.8-0.9l5-0.2C184.2,93.1,188.4,80,188.9,77.4z"
		/>
	<g>
		<g>
			<path class="st0" d="M280.4,17.5c2.7,0,4.7,0.7,6.2,2.2c1.5,1.5,2.4,2.9,2.8,4.4l44.7,127.7c0.1,0.4,0.2,0.9,0.2,1.4
				c0,1.2-0.4,2.2-1.3,3.1c-0.9,0.9-1.9,1.3-3.1,1.3h-37c-2.7,0-4.5-0.6-5.6-1.7c-1.1-1.1-1.8-2.2-2.2-3.3l-4.8-13.2h-43.1
				l-4.8,13.2c-0.4,1.1-1.1,2.2-2.2,3.3c-1.1,1.1-2.9,1.7-5.6,1.7h-37c-1.2,0-2.2-0.4-3.1-1.3c-0.9-0.9-1.3-1.9-1.3-3.1
				c0-0.5,0.1-1,0.2-1.4L228,24.1c0.4-1.5,1.3-2.9,2.8-4.4c1.5-1.5,3.5-2.2,6.2-2.2H280.4z M270,100.4l-11.4-37.2l-11.2,37.2H270z"
				/>
			<path class="st0" d="M341.3,58.9c0-1.5,0.5-2.7,1.6-3.8c1.1-1.1,2.3-1.6,3.8-1.6H385c1.5,0,2.7,0.5,3.8,1.6
				c1.1,1.1,1.6,2.3,1.6,3.8v53.9c0,7.3,3.3,11,10,11c6.7,0,10-3.7,10-11V58.9c0-1.5,0.5-2.7,1.6-3.8c1.1-1.1,2.3-1.6,3.8-1.6h38
				c1.5,0,2.7,0.5,3.8,1.6c1.1,1.1,1.6,2.3,1.6,3.8v93.3c0,1.5-0.5,2.7-1.6,3.8c-1.1,1.1-2.3,1.6-3.8,1.6h-35
				c-1.5,0-2.7-0.5-3.8-1.6c-1.1-1.1-1.6-2.3-1.6-3.8v-6.6c-3.3,4.9-7.9,8.5-13.7,10.7c-5.8,2.2-12.3,3.3-19.5,3.3
				c-5.1,0-9.9-0.9-14.6-2.6c-4.7-1.7-8.8-4.5-12.4-8.2c-3.6-3.7-6.5-8.5-8.6-14.2c-2.1-5.7-3.2-12.5-3.2-20.4V58.9z"/>
			<path class="st0" d="M537.5,110.6c0,3.1,0.7,5.5,2,7.3c1.3,1.8,3.5,2.7,6.6,2.7h18.2c1.5,0,2.7,0.5,3.8,1.6
				c1.1,1.1,1.6,2.3,1.6,3.8v26.2c0,1.5-0.5,2.7-1.6,3.8c-1.1,1.1-2.3,1.6-3.8,1.6h-22.6c-7.2,0-13.9-0.7-20-2.1
				c-6.1-1.4-11.4-3.8-15.9-7.1c-4.5-3.3-7.9-7.7-10.4-13.2c-2.5-5.5-3.7-12.3-3.7-20.6v-26h-15.8c-1.5,0-2.7-0.5-3.8-1.6
				c-1.1-1.1-1.6-2.3-1.6-3.8V58.9c0-1.5,0.5-2.7,1.6-3.8c1.1-1.1,2.3-1.6,3.8-1.6h15.8V20.9c0-1.5,0.5-2.7,1.6-3.8
				c1.1-1.1,2.3-1.6,3.8-1.6h35c1.5,0,2.7,0.5,3.8,1.6c1.1,1.1,1.6,2.3,1.6,3.8v32.6h25.2c1.5,0,2.7,0.5,3.8,1.6
				c1.1,1.1,1.6,2.3,1.6,3.8v24.2c0,1.5-0.5,2.7-1.6,3.8c-1.1,1.1-2.3,1.6-3.8,1.6h-25.2V110.6z"/>
			<path class="st0" d="M639.1,51.5c17.5,0,31.3,3.7,41.3,11.2c10.1,7.5,15.6,18.6,16.7,33.4c0.4,6.3,0.4,12.5,0,18.8
				c-2,29.8-21.4,44.7-58.1,44.7c-36.7,0-56.1-14.9-58.1-44.7c-0.4-6.3-0.4-12.5,0-18.8c1.1-14.8,6.6-26,16.7-33.4
				C607.8,55.3,621.6,51.5,639.1,51.5z M648.1,97.2c-0.3-4.4-0.9-7.8-1.9-10.1c-1-2.3-3.4-3.5-7.1-3.5c-1.9,0-3.4,0.3-4.5,0.9
				c-1.1,0.6-2,1.5-2.6,2.6c-0.6,1.1-1,2.6-1.3,4.3c-0.3,1.7-0.5,3.7-0.6,5.8c0,1.1,0,2.3-0.1,3.8c-0.1,1.5-0.1,3-0.1,4.6
				s0,3.2,0.1,4.7c0.1,1.5,0.1,2.8,0.1,3.7c0.1,2.4,0.3,4.4,0.6,6.1c0.3,1.7,0.7,3.1,1.3,4.2c0.6,1.1,1.5,2,2.6,2.5
				c1.1,0.5,2.6,0.8,4.5,0.8c3.7,0,6.1-1.1,7.1-3.3c1-2.2,1.6-5.6,1.9-10.3c0-0.9,0-2.2,0.1-3.7c0.1-1.5,0.1-3.1,0.1-4.7
				s0-3.1-0.1-4.6C648.1,99.5,648.1,98.2,648.1,97.2z"/>
			<path d="M719.8,157.6c-1.5,0-2.7-0.5-3.8-1.6c-1.1-1.1-1.6-2.3-1.6-3.8V22.9c0-1.5,0.5-2.7,1.6-3.8c1.1-1.1,2.3-1.6,3.8-1.6h66.5
				c19.2,0,33.3,3.5,42.1,10.4c8.9,6.9,13.3,17.5,13.3,31.6c0,3.2-0.5,6.2-1.6,8.9c-1.1,2.7-2.4,5.1-4,7.2c-1.6,2.1-3.3,3.9-5.2,5.4
				c-1.9,1.5-3.6,2.7-5.2,3.5c2.5,1.1,5,2.6,7.3,4.5c2.3,1.9,4.4,4.2,6.1,6.7c1.7,2.5,3.1,5.3,4.1,8.3c1,3,1.5,6.2,1.5,9.5
				c0,15.1-4.8,26.2-14.5,33.3c-9.7,7.1-23.7,10.7-41.9,10.7H719.8z M789.4,61.1c0-2.1-0.6-4.2-1.9-6.2c-1.3-2-3.4-3-6.3-3h-16.8
				v18.2h16.8c2.9,0,5-1,6.3-2.9C788.8,65.3,789.4,63.3,789.4,61.1z M764.4,123.2H783c3.3,0,5.7-1.1,7.1-3.2
				c1.4-2.1,2.1-4.3,2.1-6.6c0-2.4-0.8-4.6-2.3-6.7c-1.5-2.1-3.8-3.1-6.9-3.1h-18.6V123.2z"/>
			<path d="M864.9,157.6c-1.5,0-2.7-0.5-3.8-1.6c-1.1-1.1-1.6-2.3-1.6-3.8l-0.2-93.3c0-1.5,0.5-2.7,1.6-3.8c1.1-1.1,2.3-1.6,3.8-1.6
				H902c1.5,0,2.7,0.5,3.8,1.6c1.1,1.1,1.6,2.3,1.6,3.8v12h13c7.7,0,14.8,1.1,21.3,3.4c6.5,2.3,12,5.4,16.5,9.4
				c4.5,4,8.1,8.7,10.6,14.1c2.5,5.4,3.8,11.2,3.8,17.5c0,5.3-1,10.5-2.9,15.6c-1.9,5.1-5,9.6-9.2,13.5c-4.2,3.9-9.6,7.1-16.2,9.5
				c-6.6,2.4-14.6,3.6-23.9,3.6H864.9z M906.4,122.2h14c3.6,0,6-0.8,7.3-2.5c1.3-1.7,1.9-3.4,1.9-5.3c0-1.9-0.8-3.7-2.3-5.6
				c-1.5-1.9-3.8-2.8-6.9-2.8h-14V122.2z M987.1,157.6c-1.5,0-2.7-0.5-3.8-1.6c-1.1-1.1-1.6-2.3-1.6-3.8V58.9c0-1.5,0.5-2.7,1.6-3.8
				c1.1-1.1,2.3-1.6,3.8-1.6h35.8c1.5,0,2.7,0.5,3.8,1.6c1.1,1.1,1.6,2.3,1.6,3.8v93.3c0,1.5-0.5,2.7-1.6,3.8
				c-1.1,1.1-2.3,1.6-3.8,1.6H987.1z"/>
			<path d="M1092.2,91.8l19.6-34.8c0.3-0.5,0.8-1.2,1.7-2.1c0.9-0.9,2.2-1.3,4.1-1.3h38.4c1.3,0,2.5,0.5,3.4,1.4
				c0.9,0.9,1.4,2.1,1.4,3.4c0,0.7-0.1,1.3-0.3,1.8c-0.2,0.5-0.4,0.9-0.7,1.2l-25.4,43.1l30.4,45.9c0.5,0.8,0.8,1.7,0.8,2.6
				c0,1.3-0.5,2.5-1.4,3.4c-0.9,0.9-2.1,1.4-3.4,1.4h-42c-2,0-3.5-0.5-4.4-1.5c-0.9-1-1.5-1.6-1.8-1.9l-20.4-34v32
				c0,1.5-0.5,2.7-1.6,3.8c-1.1,1.1-2.3,1.6-3.8,1.6h-35c-1.5,0-2.7-0.5-3.8-1.6c-1.1-1.1-1.6-2.3-1.6-3.8V58.9
				c0-1.5,0.5-2.7,1.6-3.8c1.1-1.1,2.3-1.6,3.8-1.6h35c1.5,0,2.7,0.5,3.8,1.6c1.1,1.1,1.6,2.3,1.6,3.8V91.8z"/>
			<path d="M1196.7,160.9c1.6,0,2.9-0.1,4-0.3c1.1-0.2,2-0.7,2.8-1.4c0.8-0.7,1.5-1.7,2.2-3c0.7-1.3,1.4-3,2.2-5.1l-38.8-91.3
				c-0.1-0.4-0.2-0.9-0.2-1.4c0.3-1.3,0.8-2.5,1.7-3.4c0.9-0.9,2-1.4,3.3-1.4h33.8c2,0,3.5,0.5,4.4,1.6c0.9,1.1,1.6,2.1,2,3.2
				l16.6,45.7l16.8-45.7c0.4-1.2,1.1-2.3,2.2-3.3c1.1-1,2.6-1.5,4.6-1.5h33.4c1.2,0,2.3,0.4,3.2,1.3c0.9,0.9,1.4,1.8,1.4,2.9
				c0,0.3,0,0.6,0.1,0.9c0.1,0.3,0,0.7-0.3,1.1l-39.8,93.1c-3.5,8-6.8,14.7-10,20.2c-3.2,5.5-6.7,9.9-10.6,13.3
				c-3.9,3.4-8.2,5.8-13,7.3c-4.8,1.5-10.5,2.2-17,2.2h-15c-1.5,0-2.7-0.5-3.8-1.6c-1.1-1.1-1.6-2.3-1.6-3.8v-24.2
				c0-1.5,0.5-2.7,1.6-3.8c1.1-1.1,2.3-1.6,3.8-1.6H1196.7z"/>
			<path d="M1376.3,157.6c-1.5,0-2.7-0.5-3.8-1.6c-1.1-1.1-1.6-2.3-1.6-3.8V88.6h-21.4v63.7c0,1.5-0.5,2.7-1.6,3.8
				c-1.1,1.1-2.3,1.6-3.8,1.6h-35.8c-1.5,0-2.7-0.5-3.8-1.6c-1.1-1.1-1.6-2.3-1.6-3.8V58.9c0-1.5,0.5-2.7,1.6-3.8
				c1.1-1.1,2.3-1.6,3.8-1.6h103.9c1.5,0,2.7,0.5,3.8,1.6c1.1,1.1,1.6,2.3,1.6,3.8v93.3c0,1.5-0.5,2.7-1.6,3.8
				c-1.1,1.1-2.3,1.6-3.8,1.6H1376.3z"/>
		</g>
	</g>
	<path class="st0" d="M169.4,120.2c1.1-0.1,2.3-0.2,3.5-0.3c0.8-2.4,1.7-4.8,2.6-7.2c-2.3,0.1-4.6,0.3-6.6,0.5
		c-0.7,0.1-6.2,1.2-7.3,1.5c-1.1,0.4-2.1,0.6-3,1c-0.9,0.4-1.8,0.7-2.6,1c-3,1.3-4.6,2-4.6,2s1.9,0.2,5.1,0.6
		c1.6,0.1,3.5,0.4,5.7,0.7C163.2,120.1,168.7,120.2,169.4,120.2z"/>
	<path class="st0" d="M128.6,130.2L128.6,130.2L128.6,130.2C128.7,130.2,128.6,130.2,128.6,130.2z"/>
	<path class="st0" d="M165.6,133.7c0.6,0.1,1.2,0.1,1.9-0.1c0.2,0,0.5,0,0.7-0.1c0.2-0.6,0.4-1.2,0.6-1.7c0.6-1.9,1.3-3.7,1.9-5.6
		c-0.6,0-1.3,0.1-1.9,0.1c-0.7,0.1-6.2,1.2-7.3,1.5c-1.1,0.4-2.1,0.6-3,1c-0.9,0.4-1.8,0.7-2.6,1c-3,1.3-4.6,2-4.6,2
		s1.9,0.2,5.1,0.6c1.6,0.1,3.5,0.4,5.7,0.7C163.2,133.4,164.4,133.6,165.6,133.7z"/>
	<path class="st0" d="M163.1,146.7c0.9-2.2,1.8-4.5,2.7-6.7c-0.3,0-0.5,0.1-0.8,0.2c-1.2,0.4-2.3,0.8-3.4,1.1c-1.1,0.3-2.1,0.6-3,1
		c-0.9,0.4-1.8,0.7-2.6,1c-3,1.3-4.6,2-4.6,2s1.9,0.2,5.1,0.6c1.6,0.1,3.5,0.4,5.7,0.7C162.4,146.6,162.8,146.7,163.1,146.7z"/>
	<path class="st0" d="M206,28c0.5-1.4,3-9.3,3-9.3s-6.1-0.1-8.8-0.1c-2.8,0.1-5.5,0.1-8.3,0.2c-5.5,0.2-11,0.4-16.4,0.7
		c-10.8,0.5-21.5,1.5-31.7,2.5c-10.3,1-20.2,2.3-29.6,4.1c-2.4,0.5-4.7,0.9-7,1.6c-2.3,0.6-4.6,1.2-7,2.3c-0.6,0.3-1.3,0.7-1.9,1
		c-0.5,0.4-0.2,0.1-0.3,0.2L98,31.3l-0.2,0.1l-0.3,0.3l-0.6,0.5c-0.8,0.6-1.7,1.6-2.5,2.6l-1.2,1.4l-1,1.3c-0.6,0.9-1.3,1.8-1.9,2.7
		c-4.6,7.1-8,13.8-11,19.9c-3,6-5.3,11.4-7.2,15.8c-3.8,8.8-5.7,14-5.7,14s2.7-4.8,7.4-13.1c2.4-4.2,5.3-9.2,8.7-14.9
		c3.5-5.7,7.4-12,12.2-18.5c0.6-0.8,1.3-1.5,1.9-2.3l1-1.2l0.9-1c0.6-0.6,1.1-1.3,2.1-1.9l0.6-0.5l0.3-0.3l0.1-0.1
		c0.4-0.1,0.6-0.3,1-0.5c1.7-0.6,3.8-1.2,5.9-1.6c2.1-0.4,4.4-0.8,6.7-1.1c9.1-1.3,19-2,29.2-2.8c10.2-0.7,20.7-1.1,31.5-1.6
		C186,28.1,195.9,27.8,206,28z"/>
	<path class="st0" d="M25.3,95.8C25.6,97.4,26,99,27,100c0.9,1.1,2.2,1.4,3.2,1.6c1,0.1,1.7,0.2,2.2,0.2c0.5,0,0.8,0,0.8,0v-0.5
		c0,0-0.3-0.1-0.8-0.2c-0.5-0.1-1.2-0.4-2-0.7c-0.8-0.3-1.6-0.9-1.8-1.7c-0.3-0.7-0.4-1.9-0.4-3.3c0-1.5,0.2-3,0.4-4.9
		c0.2-1.7,0.4-3.8,0.7-5.4c0.1-0.4,0.2-0.7,0.3-1c0.1-0.2,0.2-0.6,0.3-0.6c0.1-0.1,0.1-0.1,0.1-0.2c0.1,0,0.1-0.1,0.2-0.1
		c0-0.1,0.3-0.2,0.4-0.3c0.8-0.5,2.7-0.9,4.6-1.1c1.9-0.3,4-0.5,6-0.6c2.1-0.1,4.1-0.4,6.1-0.5c1-0.1,2-0.1,3-0.2
		c0.9,0,1.7-0.1,2.5-0.1c1.7-0.2,3.2,0.1,4.6,0.2c0.7,0,1.3,0.3,1.9,0.5c0.3,0.1,0.6,0.1,0.9,0.2c0.3,0.1,0.5,0.2,0.8,0.4
		c1.1,0.4,1.9,1,2.6,1.6c0.6,0.6,1.2,1.1,1.4,1.5c0.3,0.4,0.4,0.7,0.4,0.7l0.5-0.1c0,0,0-0.3-0.2-0.8c-0.1-0.5-0.5-1.2-1-2
		c-0.3-0.4-0.7-0.8-1-1.2c-0.4-0.5-0.9-0.8-1.4-1.2c-0.3-0.2-0.5-0.4-0.8-0.6c-0.3-0.2-0.7-0.3-1-0.5c-0.7-0.3-1.4-0.8-2.2-1
		c-1.6-0.4-3.3-1-5.2-1c-0.9-0.1-1.9-0.2-2.9-0.2c-1,0-2,0-3,0c-2,0-4.1,0-6.3,0.1c-2.1,0.1-4.3,0.2-6.5,0.5c-2.1,0.3-4.4,0.7-6.3,2
		c-2,1.2-2.9,3.6-3,5.6c-0.2,2.1-0.1,4-0.1,5.9C25,92.4,25.1,94.2,25.3,95.8z"/>
	<path class="st0" d="M203,36c0.6-1.6,1.2-3.1,1.8-4.7c-8.2-0.1-16.5,0.2-24.6,0.5c-9.3,0.4-18.5,1-27.3,1.7
		c-8.9,0.7-17.4,1.6-25.5,2.7c-4,0.6-8,1.2-11.8,2c-1.9,0.4-3.8,0.8-5.6,1.4c-0.9,0.3-1.8,0.6-2.7,1c-0.5,0.3-0.9,0.4-1.4,0.8
		c-0.4,0.3-0.7,0.5-1.1,0.8c-3.1,2.5-5.1,5.2-7,7.9c-1.9,2.7-3.5,5.3-5,7.8c-3,5-5.3,9.4-7.2,13.1c-1.9,3.7-3.3,6.6-4.2,8.7
		c-0.9,2-1.4,3.1-1.4,3.1s2.3-4.1,6.5-11.3c2.1-3.5,4.7-7.8,8-12.6c1.6-2.4,3.4-4.8,5.4-7.3c2-2.4,4.2-5.1,6.7-7
		c0.3-0.2,0.7-0.5,1.1-0.7l1-0.5c0.8-0.3,1.6-0.6,2.4-0.8c1.7-0.5,3.5-0.8,5.3-1.2c3.7-0.7,7.6-1.2,11.6-1.6
		c8-0.9,16.5-1.6,25.3-2.1c8.8-0.6,17.9-1,27.2-1.4C187.9,36.1,195.4,36,203,36z"/>
	<path class="st0" d="M107.1,151.1c2.1,0,4.2,0.1,6.2,0c2.7-0.1,4.2-1.9,3.2-4.3c-1.7-4.2-3.6-8.3-5.8-12.2
		c-0.9-1.6-2.8-2.9-4.6-3.5c-13.3-4.8-26.7-9.4-40.1-13.9c-2-0.7-4.3-0.7-6.4-0.6c-0.8,0-2.2,1.2-2.3,2c-0.2,2.6-0.8,5.5,0.2,7.7
		c2.9,6.3,6.2,12.4,9.9,18.2c2.4,3.8,6.8,5,11,5.3C88.1,150.3,97.6,150.7,107.1,151.1C107.1,151.1,107.1,151.1,107.1,151.1z"/>
	<path class="st0" d="M61.5,121.2c0.3-0.4,1.1-0.8,8.3,1.7c7.3,2.5,6.7,2.9,10.9,4.2c4.7,1.5,6.7,1.2,8.5,3.3c0,0,0.1,0,0.1,0.1
		c0,0.3-4.3,0-9.1,0.8c-1.1,0.2-2.5,0.4-3.2,1.5c-0.4,0.6-0.3,1-0.6,1.6c-0.7,1.8-3.4,3.2-5.4,3c-2.2-0.2-3.6-2.4-6.1-6.9
		C62.6,126.4,60.3,122.5,61.5,121.2z"/>
</g>
</svg>
